<svg viewBox="0 0 100 100" xmlns="http://www.w3.org/2000/svg" fill="none">
    <!-- Body -->
    <circle cx="50" cy="50" r="32" fill="#FFB627"/>
    
    <!-- Stripes -->
    <rect x="32" y="50" width="36" height="7" fill="#333333"/>
    <rect x="32" y="63" width="36" height="7" fill="#333333"/>
    
    <!-- Wings -->
    <ellipse cx="22" cy="40" rx="20" ry="15" fill="#F0F4FF" transform="rotate(-25 22 40)"/>
    <ellipse cx="78" cy="40" rx="20" ry="15" fill="#F0F4FF" transform="rotate(25 78 40)"/>
    
    <!-- Cute face -->
    <!-- Eyes -->
    <circle cx="40" cy="37" r="4" fill="#333333"/>
    <circle cx="60" cy="37" r="4" fill="#333333"/>
    <circle cx="41.5" cy="35.5" r="1.5" fill="white"/>
    <circle cx="61.5" cy="35.5" r="1.5" fill="white"/>
    
    <!-- Rosy cheeks -->
    <circle cx="36" cy="43" r="3.5" fill="#FFB6C1" opacity="0.5"/>
    <circle cx="64" cy="43" r="3.5" fill="#FFB6C1" opacity="0.5"/>
    
    <!-- Smile -->
    <path d="M 43 41 Q 50 46 57 41" stroke="#333333" stroke-width="2" stroke-linecap="round"/>
    
    <!-- Antennae -->
    <path d="M 40 25 Q 33 15 26 17" stroke="#333333" stroke-width="2"/>
    <path d="M 60 25 Q 67 15 74 17" stroke="#333333" stroke-width="2"/>
    <circle cx="26" cy="17" r="2" fill="#FF69B4"/>
    <circle cx="74" cy="17" r="2" fill="#FF69B4"/>
    
    <!-- Honey drop -->
    <path d="M 50 85 Q 57 88 57 92 Q 57 98 50 98 Q 43 98 43 92 Q 43 88 50 85" fill="#FFD700"/>
</svg>