<svg width="189" height="115" viewBox="0 0 189 115" fill="none" xmlns="http://www.w3.org/2000/svg">
<mask id="mask0_0_1" style="mask-type:alpha" maskUnits="userSpaceOnUse" x="0" y="-8" width="189" height="123">
<rect y="-8" width="189" height="123" fill="#D9D9D9"/>
</mask>
<g mask="url(#mask0_0_1)">
<path d="M55.059 143.193C73.0897 129.615 82.5945 100.905 76.2886 79.0677C69.9827 57.23 50.2541 50.5337 32.2234 64.1112C14.1927 77.6886 4.68786 106.398 10.9937 128.236C17.2996 150.074 37.0283 156.77 55.059 143.193Z" fill="#F0F4FF"/>
<path d="M133.086 143.193C151.117 156.77 170.845 150.074 177.151 128.236C183.457 106.398 173.952 77.6887 155.922 64.1112C137.891 50.5338 118.162 57.2301 111.856 79.0678C105.55 100.905 115.055 129.615 133.086 143.193Z" fill="#F0F4FF"/>
<path d="M94.0728 177.866C132.246 177.866 163.191 146.92 163.191 108.747C163.191 70.5739 132.246 39.6284 94.0728 39.6284C55.8996 39.6284 24.9541 70.5739 24.9541 108.747C24.9541 146.92 55.8996 177.866 94.0728 177.866Z" fill="#FFB627"/>
<path d="M94.0728 177.866C132.246 177.866 163.191 146.92 163.191 108.747C163.191 70.5739 132.246 39.6284 94.0728 39.6284C55.8996 39.6284 24.9541 70.5739 24.9541 108.747C24.9541 146.92 55.8996 177.866 94.0728 177.866Z" fill="url(#paint0_radial_0_1)" fill-opacity="0.2"/>
<path d="M125.392 108.747L62.7537 108.747C58.5785 108.747 55.1938 112.132 55.1938 116.307C55.1938 120.482 58.5785 123.867 62.7537 123.867L125.392 123.867C129.568 123.867 132.952 120.482 132.952 116.307C132.952 112.132 129.568 108.747 125.392 108.747Z" fill="#744D1F"/>
<path d="M72.4738 89.3075C77.2455 89.3075 81.1136 85.4393 81.1136 80.6677C81.1136 75.896 77.2455 72.0278 72.4738 72.0278C67.7022 72.0278 63.834 75.896 63.834 80.6677C63.834 85.4393 67.7022 89.3075 72.4738 89.3075Z" fill="#333333"/>
<path d="M115.673 89.3076C120.444 89.3076 124.313 85.4394 124.313 80.6677C124.313 75.8961 120.444 72.0279 115.673 72.0279C110.901 72.0279 107.033 75.8961 107.033 80.6677C107.033 85.4394 110.901 89.3076 115.673 89.3076Z" fill="#333333"/>
<path d="M75.7126 80.6677C77.502 80.6677 78.9525 79.2171 78.9525 77.4277C78.9525 75.6384 77.502 74.1878 75.7126 74.1878C73.9232 74.1878 72.4727 75.6384 72.4727 77.4277C72.4727 79.2171 73.9232 80.6677 75.7126 80.6677Z" fill="white"/>
<path d="M118.913 80.6676C120.702 80.6676 122.153 79.217 122.153 77.4277C122.153 75.6383 120.702 74.1877 118.913 74.1877C117.123 74.1877 115.673 75.6383 115.673 77.4277C115.673 79.217 117.123 80.6676 118.913 80.6676Z" fill="white"/>
<path opacity="0.5" d="M63.833 101.187C68.0082 101.187 71.3929 97.8026 71.3929 93.6275C71.3929 89.4523 68.0082 86.0676 63.833 86.0676C59.6579 86.0676 56.2732 89.4523 56.2732 93.6275C56.2732 97.8026 59.6579 101.187 63.833 101.187Z" fill="#FFB6C1"/>
<path opacity="0.5" d="M124.312 101.187C128.487 101.187 131.872 97.8027 131.872 93.6275C131.872 89.4523 128.487 86.0676 124.312 86.0676C120.137 86.0676 116.752 89.4523 116.752 93.6275C116.752 97.8027 120.137 101.187 124.312 101.187Z" fill="#FFB6C1"/>
<path fill-rule="evenodd" clip-rule="evenodd" d="M75.1028 104.94C76.622 107.067 79.5776 107.56 81.7045 106.04C86.1282 102.881 90.2267 101.522 94.0735 101.522C97.9203 101.522 102.019 102.881 106.443 106.04C108.569 107.56 111.525 107.067 113.044 104.94C114.563 102.813 114.071 99.8577 111.944 98.3385C106.288 94.2985 100.307 92.0571 94.0735 92.0571C87.8405 92.0571 81.8592 94.2985 76.2031 98.3385C74.0763 99.8577 73.5837 102.813 75.1028 104.94Z" fill="#333333"/>
<path fill-rule="evenodd" clip-rule="evenodd" d="M40.9341 32.9181C54.1101 29.1535 66 37.2477 76.3506 52.0343L68.5966 57.4621C58.7876 43.4492 50.5179 40.0236 43.5343 42.0189L40.9341 32.9181Z" fill="#333333"/>
<path fill-rule="evenodd" clip-rule="evenodd" d="M145.744 58.5658C136.513 49.465 129.358 43.4492 119.549 57.4621L111.795 52.0343C122.146 37.2477 141.245 40.0001 148.344 49.465L145.744 58.5658Z" fill="#333333"/>
<path d="M42.234 41.7884C44.6198 41.7884 46.5539 39.8543 46.5539 37.4685C46.5539 35.0827 44.6198 33.1486 42.234 33.1486C39.8482 33.1486 37.9141 35.0827 37.9141 37.4685C37.9141 39.8543 39.8482 41.7884 42.234 41.7884Z" fill="#B12069"/>
<path d="M145.565 58.1048C147.951 58.1048 149.885 56.1707 149.885 53.7849C149.885 51.3991 147.951 49.465 145.565 49.465C143.179 49.465 141.245 51.3991 141.245 53.7849C141.245 56.1707 143.179 58.1048 145.565 58.1048Z" fill="#B12069"/>
<path d="M110 32.5C123.362 13.5 132.278 21.6182 128 27.5C124 33 113 23.5 131 2" stroke="black" stroke-opacity="0.5" stroke-width="4" stroke-linecap="round"/>
</g>
<defs>
<radialGradient id="paint0_radial_0_1" cx="0" cy="0" r="1" gradientUnits="userSpaceOnUse" gradientTransform="translate(15.0553 51.0765) rotate(19.844) scale(140.108)">
<stop stop-opacity="0"/>
<stop offset="1" stop-opacity="0.3"/>
</radialGradient>
</defs>
</svg>
