<svg width="286" height="63" viewBox="0 0 286 63" fill="none" xmlns="http://www.w3.org/2000/svg">
<path fill-rule="evenodd" clip-rule="evenodd" d="M9.10302 0.747435C12.0045 -0.853134 15.6542 0.201498 17.2548 3.10302C22.8696 13.2816 44.0997 35.3714 81.8704 34.9964C105.214 34.7646 116.713 29.7801 128.788 24.5457C129.118 24.4028 129.448 24.2597 129.779 24.1165C142.92 18.4277 156.838 12.7388 184.549 12.9995C228.227 13.4104 264.122 28.1858 277.054 35.8311C279.907 37.5175 280.852 41.197 279.166 44.0495C277.48 46.902 273.8 47.8474 270.948 46.161C259.638 39.4751 225.79 25.388 184.436 24.999C159.001 24.7597 146.812 29.8193 134.546 35.129C134.248 35.2577 133.951 35.3865 133.653 35.5156C120.971 41.0114 107.752 46.74 81.9895 46.9958C39.2022 47.4206 14.186 22.3839 6.74744 8.8992C5.14687 5.99767 6.2015 2.348 9.10302 0.747435Z" fill="#FFF4C7"/>
<path fill-rule="evenodd" clip-rule="evenodd" d="M3.10302 7.74744C6.00455 6.14687 9.65421 7.2015 11.2548 10.103C16.8696 20.2816 38.0997 42.3714 75.8704 41.9964C99.2144 41.7646 110.713 36.7801 122.788 31.5457C123.118 31.4028 123.448 31.2597 123.779 31.1165C136.92 25.4277 150.838 19.7388 178.549 19.9995C222.227 20.4104 258.122 35.1858 271.054 42.8311C273.907 44.5175 274.852 48.197 273.166 51.0495C271.48 53.902 267.8 54.8474 264.948 53.161C253.638 46.4751 219.79 32.388 178.436 31.999C153.001 31.7597 140.812 36.8193 128.546 42.129C128.248 42.2577 127.951 42.3865 127.653 42.5156C114.971 48.0114 101.752 53.74 75.9895 53.9958C33.2022 54.4206 8.18601 29.3839 0.747435 15.8992C-0.853134 12.9977 0.201498 9.348 3.10302 7.74744Z" fill="#FFCC00"/>
<path d="M17.0352 48.0011V13.092H24.4159V27.4954H39.3988V13.092H46.7625V48.0011H39.3988V33.5807H24.4159V48.0011H17.0352Z" fill="black"/>
<path d="M62.6209 48.5125C59.9732 48.5125 57.6834 47.95 55.7516 46.825C53.8311 45.6886 52.3482 44.1091 51.3027 42.0863C50.2572 40.0522 49.7345 37.6943 49.7345 35.0125C49.7345 32.3079 50.2572 29.9443 51.3027 27.9216C52.3482 25.8875 53.8311 24.3079 55.7516 23.1829C57.6834 22.0466 59.9732 21.4784 62.6209 21.4784C65.2686 21.4784 67.5527 22.0466 69.4732 23.1829C71.405 24.3079 72.8936 25.8875 73.9391 27.9216C74.9845 29.9443 75.5072 32.3079 75.5072 35.0125C75.5072 37.6943 74.9845 40.0522 73.9391 42.0863C72.8936 44.1091 71.405 45.6886 69.4732 46.825C67.5527 47.95 65.2686 48.5125 62.6209 48.5125ZM62.655 42.8875C63.8595 42.8875 64.8652 42.5466 65.672 41.8647C66.4788 41.1716 67.0868 40.2284 67.4959 39.0352C67.9163 37.842 68.1266 36.4841 68.1266 34.9613C68.1266 33.4386 67.9163 32.0807 67.4959 30.8875C67.0868 29.6943 66.4788 28.7511 65.672 28.0579C64.8652 27.3647 63.8595 27.0182 62.655 27.0182C61.4391 27.0182 60.4163 27.3647 59.5868 28.0579C58.7686 28.7511 58.1493 29.6943 57.7288 30.8875C57.3197 32.0807 57.1152 33.4386 57.1152 34.9613C57.1152 36.4841 57.3197 37.842 57.7288 39.0352C58.1493 40.2284 58.7686 41.1716 59.5868 41.8647C60.4163 42.5466 61.4391 42.8875 62.655 42.8875Z" fill="black"/>
<path d="M85.5702 32.8647V48.0011H78.3088V21.8193H85.2293V26.4386H85.5361C86.1157 24.9159 87.0872 23.7113 88.4509 22.825C89.8145 21.9272 91.4679 21.4784 93.4111 21.4784C95.2293 21.4784 96.8145 21.8761 98.1668 22.6716C99.5191 23.467 100.57 24.6034 101.32 26.0807C102.07 27.5466 102.445 29.2966 102.445 31.3307V48.0011H95.1838V32.6261C95.1952 31.0238 94.7861 29.7738 93.9566 28.8761C93.127 27.967 91.985 27.5125 90.5304 27.5125C89.5532 27.5125 88.6895 27.7227 87.9395 28.1432C87.2009 28.5636 86.6213 29.1772 86.2009 29.9841C85.7918 30.7795 85.5816 31.7397 85.5702 32.8647Z" fill="black"/>
<path d="M118.18 48.5125C115.487 48.5125 113.169 47.967 111.225 46.8761C109.294 45.7738 107.805 44.217 106.76 42.2057C105.714 40.1829 105.191 37.7909 105.191 35.0295C105.191 32.3363 105.714 29.9727 106.76 27.9386C107.805 25.9045 109.277 24.3193 111.174 23.1829C113.083 22.0466 115.322 21.4784 117.89 21.4784C119.618 21.4784 121.225 21.7568 122.714 22.3136C124.214 22.8591 125.521 23.6829 126.635 24.7852C127.76 25.8875 128.635 27.2738 129.26 28.9443C129.885 30.6034 130.197 32.5466 130.197 34.7738V36.7682H108.089V32.2682H123.362C123.362 31.2227 123.135 30.2966 122.68 29.4897C122.225 28.6829 121.595 28.0522 120.788 27.5977C119.993 27.1318 119.066 26.8988 118.01 26.8988C116.907 26.8988 115.93 27.1545 115.078 27.6659C114.237 28.1659 113.578 28.842 113.1 29.6943C112.623 30.5352 112.379 31.4727 112.368 32.5068V36.7852C112.368 38.0807 112.606 39.2 113.083 40.1432C113.572 41.0863 114.26 41.8136 115.146 42.325C116.032 42.8363 117.083 43.092 118.299 43.092C119.106 43.092 119.845 42.9784 120.515 42.7511C121.186 42.5238 121.76 42.1829 122.237 41.7284C122.714 41.2738 123.078 40.717 123.328 40.0579L130.044 40.5011C129.703 42.1147 129.004 43.5238 127.947 44.7284C126.902 45.9216 125.549 46.8534 123.89 47.5238C122.243 48.1829 120.339 48.5125 118.18 48.5125Z" fill="black"/>
<path d="M136.796 57.8193C135.875 57.8193 135.011 57.7454 134.205 57.5977C133.409 57.4613 132.75 57.2852 132.227 57.0693L133.864 51.6488C134.716 51.9102 135.483 52.0522 136.165 52.075C136.858 52.0977 137.455 51.9386 137.955 51.5977C138.466 51.2568 138.881 50.6772 139.199 49.8591L139.625 48.7511L130.233 21.8193H137.869L143.29 41.0466H143.563L149.034 21.8193H156.722L146.546 50.8307C146.057 52.2397 145.392 53.467 144.551 54.5125C143.722 55.5693 142.671 56.3818 141.398 56.95C140.125 57.5295 138.591 57.8193 136.796 57.8193Z" fill="black"/>
<path d="M158.654 48.0011V13.092H181.768V19.1772H166.035V27.4954H180.233V33.5807H166.035V48.0011H158.654Z" fill="black"/>
<path d="M191.937 13.092V48.0011H184.676V13.092H191.937Z" fill="black"/>
<path d="M207.663 48.5125C205.016 48.5125 202.726 47.95 200.794 46.825C198.874 45.6886 197.391 44.1091 196.345 42.0863C195.3 40.0522 194.777 37.6943 194.777 35.0125C194.777 32.3079 195.3 29.9443 196.345 27.9216C197.391 25.8875 198.874 24.3079 200.794 23.1829C202.726 22.0466 205.016 21.4784 207.663 21.4784C210.311 21.4784 212.595 22.0466 214.516 23.1829C216.447 24.3079 217.936 25.8875 218.982 27.9216C220.027 29.9443 220.55 32.3079 220.55 35.0125C220.55 37.6943 220.027 40.0522 218.982 42.0863C217.936 44.1091 216.447 45.6886 214.516 46.825C212.595 47.95 210.311 48.5125 207.663 48.5125ZM207.697 42.8875C208.902 42.8875 209.908 42.5466 210.715 41.8647C211.521 41.1716 212.129 40.2284 212.538 39.0352C212.959 37.842 213.169 36.4841 213.169 34.9613C213.169 33.4386 212.959 32.0807 212.538 30.8875C212.129 29.6943 211.521 28.7511 210.715 28.0579C209.908 27.3647 208.902 27.0182 207.697 27.0182C206.482 27.0182 205.459 27.3647 204.629 28.0579C203.811 28.7511 203.192 29.6943 202.771 30.8875C202.362 32.0807 202.158 33.4386 202.158 34.9613C202.158 36.4841 202.362 37.842 202.771 39.0352C203.192 40.2284 203.811 41.1716 204.629 41.8647C205.459 42.5466 206.482 42.8875 207.697 42.8875Z" fill="black"/>
<path d="M227.86 48.0011L220.735 21.8193H228.081L232.138 39.4102H232.377L236.604 21.8193H243.814L248.11 39.3079H248.331L252.32 21.8193H259.65L252.542 48.0011H244.854L240.354 31.5352H240.03L235.53 48.0011H227.86Z" fill="black"/>
<path d="M286.001 57.0011C286.001 60.3148 283.315 63.0011 280.001 63.0011C276.687 63.0011 274.001 60.3148 274.001 57.0011C274.001 53.6874 276.687 51.0011 280.001 51.0011C283.315 51.0011 286.001 53.6874 286.001 57.0011Z" fill="#FFCC00"/>
</svg>
